<svg width="116" height="27" viewBox="0 0 116 27" fill="none" xmlns="http://www.w3.org/2000/svg">
<path d="M3.64038 27L0 12H3.14826L5.44479 22.3043L8.23344 12H11.8927L14.5615 22.4783L16.9022 12H20L16.3028 27H13.041L10 15.7826L6.97161 27H3.64038Z" fill="#323232"/>
<path d="M43 27H39.7189L38.4127 23.5901H32.4325L31.2006 27H28L33.8254 12H37.0136L43 27ZM37.4408 21.0621L35.3793 15.4969L33.3611 21.0621H37.4408Z" fill="#323232"/>
<path d="M77.6357 19.0459H69.8027V27.0002H77.6357V19.0459Z" fill="#ED8573"/>
<path d="M66.666 19.0459H58.833V27.0002H66.666V19.0459Z" fill="#F0975E"/>
<path d="M77.6357 7.95459H69.8027V15.9089H77.6357V7.95459Z" fill="#F0975E"/>
<path d="M66.666 7.95459H58.833V15.9089H66.666V7.95459Z" fill="#F0975E"/>
<path fill-rule="evenodd" clip-rule="evenodd" d="M58.8329 0H55.7023V4.82371H51V7.95434H55.7023V15.9087H51V19.0393H55.7023V26.9936H58.8329V19.0457H66.6659V27H69.7965V19.0457H77.6295V15.9151H69.7965V7.95434H77.6295V4.82371H69.7965V0H66.6659V4.82371H58.8329V0ZM66.6659 15.9087V7.95434H58.8329V15.9087H66.6659Z" fill="#323232"/>
<path d="M85.6357 27V12H88.5063V24.4509H95.6357V27H85.6357Z" fill="#323232"/>
<path d="M103.636 27V12H115.335V14.5342H106.819V17.8571H114.747V20.3851H106.819V24.472H115.636V27H103.636Z" fill="#323232"/>
</svg>
